<svg width="366" height="110" viewBox="0 0 366 110" fill="none" xmlns="http://www.w3.org/2000/svg">
<path d="M103.804 0.544266L83.7723 32.0369L81.6102 23.5681L73.6909 46.6169L90.1109 39.0069L90.1686 46.6332L123.459 33.4371L104.901 32.9267L117.424 15.1328L98.1693 25.301L103.804 0.544266ZM50.5635 8.88295L42.1773 12.615L46.5994 27.0333L0 47.7661L3.29265 54.9877L49.8916 34.2467L57.8601 47.0624L70.7835 41.3139L65.1899 23.0907L50.5635 8.88295ZM47.2544 51.5468V56.8174H23.9548C28.1463 66.8708 37.3793 73.7678 47.2544 76.0605V84.6018H62.6017C59.4259 92.5104 53.821 99.0274 47.2785 104.703H40.6049V109.544H115.122V104.704H107.94C100.409 99.0315 94.8216 92.5231 91.7895 84.6018H108.472V77.0403C113.648 75.2282 118.824 71.986 124 67.5361C118.808 62.9966 113.719 60.4767 108.472 59.2622V51.5473L47.2544 51.5468Z" fill="#F07217"/>
<path d="M142.52 52.0443V15.9803H152.768L161.728 34.2923L170.632 15.9803H180.824V52.0443H170.296V34.0123L164.528 45.8843H158.872L153.048 34.0123V52.0443H142.52ZM203.191 52.6043C197.218 52.6043 192.645 51.1483 189.471 48.2363C186.335 45.3243 184.767 40.6203 184.767 34.1243C184.767 29.6443 185.477 26.0416 186.895 23.3163C188.314 20.5536 190.386 18.5563 193.111 17.3243C195.874 16.0549 199.234 15.4203 203.191 15.4203C207.149 15.4203 210.49 16.0549 213.215 17.3243C215.978 18.5563 218.069 20.5536 219.487 23.3163C220.906 26.0416 221.615 29.6443 221.615 34.1243C221.615 40.6203 220.029 45.3243 216.855 48.2363C213.682 51.1483 209.127 52.6043 203.191 52.6043ZM203.191 43.6443C205.879 43.6443 207.821 42.8976 209.015 41.4043C210.247 39.8736 210.863 37.4469 210.863 34.1243C210.863 30.5776 210.247 28.0763 209.015 26.6203C207.821 25.1269 205.879 24.3803 203.191 24.3803C200.503 24.3803 198.543 25.1269 197.311 26.6203C196.117 28.0763 195.519 30.5776 195.519 34.1243C195.519 37.4469 196.117 39.8736 197.311 41.4043C198.543 42.8976 200.503 43.6443 203.191 43.6443ZM244.52 52.6043C237.986 52.6043 233.002 50.9989 229.568 47.7883C226.133 44.5776 224.416 40.0416 224.416 34.1803C224.416 28.1323 226.096 23.5029 229.456 20.2923C232.816 17.0443 237.818 15.4203 244.464 15.4203C246.704 15.4203 248.701 15.5883 250.456 15.9243C252.21 16.2603 253.89 16.7269 255.496 17.3243V26.5083C252.285 25.0896 248.85 24.3803 245.192 24.3803C241.794 24.3803 239.274 25.1643 237.632 26.7323C235.989 28.2629 235.168 30.7456 235.168 34.1803C235.168 37.5403 236.026 39.9669 237.744 41.4603C239.498 42.9163 242.018 43.6443 245.304 43.6443C247.096 43.6443 248.832 43.4763 250.512 43.1403C252.229 42.8043 253.928 42.2816 255.608 41.5723V50.8123C254.002 51.3723 252.304 51.8016 250.512 52.1003C248.757 52.4363 246.76 52.6043 244.52 52.6043ZM259.551 52.0443V15.9803H270.079V28.6923L280.999 15.9803H292.983L280.271 30.7643L293.879 52.0443H282.679L273.775 37.4843L270.079 41.6283V52.0443H259.551ZM311.789 52.6043C308.429 52.6043 305.461 52.0629 302.885 50.9803C300.346 49.8603 298.349 48.2363 296.893 46.1083C295.437 43.9429 294.709 41.2923 294.709 38.1563V15.9803H305.237V37.0363C305.237 41.4416 307.421 43.6443 311.789 43.6443C313.879 43.6443 315.485 43.1029 316.605 42.0203C317.725 40.9376 318.285 39.2763 318.285 37.0363V15.9803H328.813V38.1563C328.813 41.2923 328.085 43.9429 326.629 46.1083C325.21 48.2363 323.213 49.8603 320.637 50.9803C318.098 52.0629 315.149 52.6043 311.789 52.6043ZM333.598 52.0443V15.9803H352.19C355.139 15.9803 357.566 16.5776 359.47 17.7723C361.411 18.9296 362.849 20.5163 363.782 22.5323C364.715 24.5483 365.182 26.7883 365.182 29.2523C365.182 31.7909 364.641 34.0496 363.558 36.0283C362.475 38.0069 360.945 39.5563 358.966 40.6763C356.987 41.7963 354.654 42.3563 351.966 42.3563H344.126V52.0443H333.598ZM344.126 34.2923H349.558C351.201 34.2923 352.414 33.8256 353.198 32.8923C354.019 31.9589 354.43 30.7456 354.43 29.2523C354.43 27.6469 354.057 26.3776 353.31 25.4443C352.563 24.5109 351.406 24.0443 349.838 24.0443H344.126V34.2923ZM142.52 97.0443V60.9803H169.624V68.8203H153.048V75.0363H167.496V82.9883H153.048V97.0443H142.52ZM189.738 97.6043C183.765 97.6043 179.191 96.1483 176.018 93.2363C172.882 90.3243 171.314 85.6203 171.314 79.1243C171.314 74.6443 172.023 71.0416 173.442 68.3163C174.861 65.5536 176.933 63.5563 179.658 62.3243C182.421 61.0549 185.781 60.4203 189.738 60.4203C193.695 60.4203 197.037 61.0549 199.762 62.3243C202.525 63.5563 204.615 65.5536 206.034 68.3163C207.453 71.0416 208.162 74.6443 208.162 79.1243C208.162 85.6203 206.575 90.3243 203.402 93.2363C200.229 96.1483 195.674 97.6043 189.738 97.6043ZM189.738 88.6443C192.426 88.6443 194.367 87.8976 195.562 86.4043C196.794 84.8736 197.41 82.4469 197.41 79.1243C197.41 75.5776 196.794 73.0763 195.562 71.6203C194.367 70.1269 192.426 69.3803 189.738 69.3803C187.05 69.3803 185.09 70.1269 183.858 71.6203C182.663 73.0763 182.066 75.5776 182.066 79.1243C182.066 82.4469 182.663 84.8736 183.858 86.4043C185.09 87.8976 187.05 88.6443 189.738 88.6443ZM212.083 97.0443V60.9803H230.843C233.792 60.9803 236.2 61.5216 238.067 62.6043C239.971 63.6869 241.389 65.1989 242.323 67.1403C243.256 69.0443 243.723 71.2656 243.723 73.8043C243.723 76.2309 243.107 78.3776 241.875 80.2443C240.68 82.0736 239.075 83.4736 237.059 84.4443C237.469 84.7803 237.824 85.1909 238.123 85.6763C238.421 86.1243 238.757 86.7589 239.13 87.5803L243.275 97.0443H232.299L228.491 88.3643C228.192 87.6923 227.819 87.2256 227.371 86.9643C226.96 86.6656 226.363 86.5163 225.579 86.5163H222.611V97.0443H212.083ZM222.611 78.4523H228.155C229.685 78.4523 230.861 78.0603 231.683 77.2763C232.541 76.4549 232.971 75.2976 232.971 73.8043C232.971 70.6309 231.477 69.0443 228.491 69.0443H222.611V78.4523ZM265.401 97.6043C258.98 97.6043 254.089 96.0363 250.729 92.9003C247.369 89.7269 245.689 85.2096 245.689 79.3483C245.689 73.3003 247.425 68.6336 250.897 65.3483C254.369 62.0629 259.446 60.4203 266.129 60.4203C268.369 60.4203 270.385 60.5509 272.177 60.8123C274.006 61.0736 275.724 61.4656 277.329 61.9883V71.0043C275.686 70.3696 273.988 69.9403 272.233 69.7163C270.478 69.4923 268.686 69.3803 266.857 69.3803C263.385 69.3803 260.772 70.1643 259.017 71.7323C257.3 73.3003 256.441 75.8389 256.441 79.3483C256.441 82.6336 257.188 85.0043 258.681 86.4603C260.212 87.9163 262.452 88.6443 265.401 88.6443C266.372 88.6443 267.286 88.5883 268.145 88.4763C269.004 88.3269 269.806 88.1403 270.553 87.9163V82.6523H263.385V76.1563H279.345V94.3003C277.964 95.1589 276.116 95.9243 273.801 96.5963C271.524 97.2683 268.724 97.6043 265.401 97.6043ZM283.286 97.0443V60.9803H310.614V69.0443H293.814V74.9243H308.542V83.1003H293.814V88.9803H310.614V97.0443H283.286Z" fill="#F07217"/>
</svg>
